<?xml version="1.0" standalone="no"?>
<!DOCTYPE svg PUBLIC "-//W3C//DTD SVG 20010904//EN"
 "http://www.w3.org/TR/2001/REC-SVG-20010904/DTD/svg10.dtd">
<svg version="1.0" xmlns="http://www.w3.org/2000/svg"
 width="450.000000pt" height="555.000000pt" viewBox="0 0 450.000000 555.000000"
 preserveAspectRatio="xMidYMid meet">

<g transform="translate(0.000000,555.000000) scale(0.100000,-0.100000)"
fill="#000000" stroke="none">
<path d="M2040 5425 c-215 -35 -455 -118 -618 -214 -440 -257 -732 -703 -782
-1190 -6 -66 -10 -616 -10 -1552 0 -806 -4 -1449 -9 -1449 -4 0 -29 22 -55 50
-26 27 -51 50 -56 50 -14 0 -355 -359 -358 -378 -1 -9 15 -94 36 -189 l39
-172 -31 -31 -31 -31 47 -40 c42 -36 49 -48 59 -100 l12 -59 66 0 c60 0 70 -3
110 -35 24 -19 49 -35 55 -35 6 0 31 16 55 35 40 32 50 35 107 35 l64 0 6 39
c11 70 -15 73 287 -32 l127 -44 122 69 121 68 131 -41 c72 -22 154 -48 183
-56 l52 -16 68 40 68 41 130 -24 c72 -13 284 -51 473 -84 l343 -61 297 51
c163 28 348 60 410 72 l113 21 52 -21 c70 -29 75 -28 79 16 l3 37 63 3 c55 3
67 0 93 -23 38 -31 44 -31 81 0 22 19 41 25 77 25 l48 0 31 72 c17 40 47 113
67 163 32 81 34 91 19 102 -19 14 -16 20 48 94 26 31 48 64 48 72 0 9 -48 76
-106 149 -58 73 -136 170 -172 216 -36 45 -67 82 -68 82 -1 0 -19 -22 -40 -50
-21 -27 -42 -46 -46 -42 -4 4 -9 685 -11 1512 l-3 1505 -22 97 c-27 118 -89
303 -127 378 -76 151 -210 328 -333 439 -247 224 -494 349 -832 421 -134 29
-447 37 -580 15z m508 -26 c546 -91 996 -416 1223 -883 29 -60 30 -62 19 -146
-5 -47 -28 -258 -50 -470 -176 -1685 -310 -2366 -542 -2761 -31 -52 -62 -100
-70 -106 -7 -6 -38 -16 -68 -22 -30 -6 -95 -19 -145 -30 -49 -10 -130 -24
-180 -30 -49 -6 -107 -14 -128 -17 l-38 -6 20 41 c12 22 21 43 21 46 0 10 -45
5 -71 -9 -15 -8 -65 -28 -110 -45 -46 -18 -93 -36 -104 -41 -80 -36 -260 -101
-274 -98 -10 2 -57 39 -104 82 -86 79 -87 80 -87 128 0 34 -4 48 -14 48 -8 0
-50 -29 -94 -65 l-80 -64 -57 59 c-31 33 -59 60 -63 60 -4 0 -43 -38 -87 -86
l-80 -86 -144 77 c-101 55 -146 74 -154 66 -7 -7 -20 6 -45 47 -20 31 -59 86
-87 122 -28 36 -57 75 -64 88 -6 12 -17 22 -24 22 -16 0 -90 -94 -158 -200
l-54 -85 -3 155 c-1 85 -1 765 1 1510 l3 1355 22 97 c49 214 142 426 259 591
80 113 248 279 370 365 355 253 818 362 1241 291z"/>
<path d="M2356 4835 c-10 -8 -25 -38 -33 -67 -21 -79 -28 -297 -13 -414 17
-135 33 -164 94 -164 61 0 81 82 81 330 0 207 -13 291 -48 315 -27 19 -56 19
-81 0z m77 -48 c17 -33 17 -42 5 -79 -15 -48 -35 -63 -71 -54 -33 8 -40 32
-27 92 20 89 61 107 93 41z"/>
<path d="M1471 4821 c-31 -31 -46 -140 -44 -321 2 -196 16 -274 55 -303 32
-24 71 -17 92 16 45 70 48 507 3 592 -5 11 -15 23 -21 27 -20 14 -66 8 -85
-11z m88 -45 c13 -33 13 -44 0 -79 -18 -53 -59 -72 -89 -41 -18 18 -19 25 -10
74 18 95 71 120 99 46z"/>
<path d="M1660 3996 c-156 -33 -273 -88 -351 -167 -68 -67 -83 -101 -83 -184
0 -85 15 -117 90 -193 234 -233 857 -238 1111 -8 173 157 122 360 -120 480
-125 62 -208 78 -407 82 -120 2 -195 -1 -240 -10z m455 -36 c156 -34 323 -133
355 -210 11 -26 10 -34 -6 -57 -60 -93 -212 -216 -312 -253 -114 -43 -179 -51
-434 -57 l-247 -5 -46 26 c-194 114 -230 285 -88 418 87 81 239 142 393 159
108 11 281 2 385 -21z"/>
</g>
</svg>
